<svg xmlns="http://www.w3.org/2000/svg" xmlns:xlink="http://www.w3.org/1999/xlink" width="500" zoomAndPan="magnify" viewBox="0 0 375 374.999991" height="500" preserveAspectRatio="xMidYMid meet" version="1.0"><defs><g/><clipPath id="a952ad8699"><path d="M 187.5 375 C 137.441406 375 90.304688 355.515625 54.929688 320.070312 C 19.484375 284.695312 0 237.558594 0 187.5 C 0 137.441406 19.484375 90.304688 54.929688 54.929688 C 90.304688 19.484375 137.441406 0 187.5 0 C 237.558594 0 284.695312 19.484375 320.070312 54.929688 C 355.515625 90.378906 375 137.441406 375 187.5 C 375 237.558594 355.515625 284.695312 320.070312 320.070312 C 284.695312 355.515625 237.558594 375 187.5 375 Z M 187.5 11.242188 C 140.4375 11.242188 96.148438 29.601562 62.875 62.875 C 29.601562 96.148438 11.242188 140.4375 11.242188 187.5 C 11.242188 234.5625 29.601562 278.851562 62.875 312.125 C 96.148438 345.398438 140.4375 363.757812 187.5 363.757812 C 234.5625 363.757812 278.851562 345.398438 312.125 312.125 C 345.398438 278.851562 363.757812 234.5625 363.757812 187.5 C 363.757812 140.4375 345.398438 96.148438 312.125 62.875 C 278.851562 29.601562 234.5625 11.242188 187.5 11.242188 Z M 187.5 11.242188 " clip-rule="nonzero"/></clipPath></defs><g clip-path="url(#a952ad8699)"><rect x="-37.5" width="450" fill="#000000" y="-37.499999" height="449.999989" fill-opacity="1"/></g><g fill="#000000" fill-opacity="1"><g transform="translate(45.634972, 230.338418)"><g><path d="M 70.125 0 L 45.46875 -36.671875 L 33.0625 -22.9375 L 33.0625 0 L 9.328125 0 L 9.328125 -93.328125 L 33.0625 -93.328125 L 33.0625 -52.9375 L 68.796875 -93.328125 L 96.265625 -93.328125 L 61.59375 -54.671875 L 98.53125 0 Z M 70.125 0 "/></g></g></g><g fill="#000000" fill-opacity="1"><g transform="translate(154.558589, 230.338418)"><g><path d="M 82.390625 -74.65625 L 33.0625 -74.65625 L 33.0625 -56.125 L 77.59375 -56.125 L 77.59375 -37.46875 L 33.0625 -37.46875 L 33.0625 -18.671875 L 83.859375 -18.671875 L 83.859375 0 L 9.328125 0 L 9.328125 -93.328125 L 82.390625 -93.328125 Z M 82.390625 -74.65625 "/></g></g></g><g fill="#000000" fill-opacity="1"><g transform="translate(253.749773, 230.338418)"><g><path d="M 45.203125 -94.390625 C 59.148438 -94.390625 71.414062 -90.925781 82 -84 L 73.0625 -65.46875 C 68.175781 -68.3125 62.929688 -70.644531 57.328125 -72.46875 C 51.734375 -74.289062 47.023438 -75.203125 43.203125 -75.203125 C 36.359375 -75.203125 32.9375 -72.929688 32.9375 -68.390625 C 32.9375 -65.460938 34.625 -63.109375 38 -61.328125 C 41.375 -59.554688 45.484375 -58.023438 50.328125 -56.734375 C 55.171875 -55.441406 60.015625 -53.882812 64.859375 -52.0625 C 69.703125 -50.238281 73.8125 -47.28125 77.1875 -43.1875 C 80.570312 -39.101562 82.265625 -33.953125 82.265625 -27.734375 C 82.265625 -18.753906 78.753906 -11.753906 71.734375 -6.734375 C 64.710938 -1.710938 55.78125 0.796875 44.9375 0.796875 C 37.195312 0.796875 29.550781 -0.535156 22 -3.203125 C 14.445312 -5.867188 7.867188 -9.507812 2.265625 -14.125 L 11.46875 -32.40625 C 16.175781 -28.3125 21.726562 -24.953125 28.125 -22.328125 C 34.53125 -19.710938 40.222656 -18.40625 45.203125 -18.40625 C 49.023438 -18.40625 52 -19.09375 54.125 -20.46875 C 56.257812 -21.84375 57.328125 -23.863281 57.328125 -26.53125 C 57.328125 -29.113281 56.101562 -31.269531 53.65625 -33 C 51.21875 -34.726562 48.175781 -36.015625 44.53125 -36.859375 C 40.882812 -37.703125 36.925781 -38.832031 32.65625 -40.25 C 28.394531 -41.675781 24.441406 -43.234375 20.796875 -44.921875 C 17.148438 -46.617188 14.101562 -49.3125 11.65625 -53 C 9.21875 -56.6875 8 -61.109375 8 -66.265625 C 8 -74.796875 11.398438 -81.613281 18.203125 -86.71875 C 25.003906 -91.832031 34.003906 -94.390625 45.203125 -94.390625 Z M 45.203125 -94.390625 "/></g></g></g></svg>