<svg xmlns="http://www.w3.org/2000/svg" xmlns:xlink="http://www.w3.org/1999/xlink" width="500" zoomAndPan="magnify" viewBox="0 0 375 374.999991" height="500" preserveAspectRatio="xMidYMid meet" version="1.0"><defs><g/><clipPath id="3ca52a8862"><path d="M 11.375 5 L 208 5 L 208 370 L 11.375 370 Z M 11.375 5 " clip-rule="nonzero"/></clipPath></defs><path stroke-linecap="butt" transform="matrix(0.75, 0, 0, 0.75, 249.76613, 169.662426)" fill="none" stroke-linejoin="miter" d="M -0.000673998 9.002183 L 157.978503 9.002183 " stroke="#000000" stroke-width="18" stroke-opacity="1" stroke-miterlimit="4"/><path stroke-linecap="round" transform="matrix(0.75, 0, 0, 0.75, 249.76613, 169.662426)" fill="none" stroke-linejoin="round" d="M 121.978501 -17.997819 L 157.978503 9.002183 L 121.978501 36.002185 " stroke="#000000" stroke-width="18" stroke-opacity="1" stroke-miterlimit="4"/><g fill="#000000" fill-opacity="1"><g transform="translate(47.521485, 212.223481)"><g><path d="M 46.953125 0 L 30.4375 -24.546875 L 22.140625 -15.34375 L 22.140625 0 L 6.25 0 L 6.25 -62.46875 L 22.140625 -62.46875 L 22.140625 -35.4375 L 46.046875 -62.46875 L 64.4375 -62.46875 L 41.234375 -36.59375 L 65.953125 0 Z M 46.953125 0 "/></g></g></g><g fill="#000000" fill-opacity="1"><g transform="translate(120.435107, 212.223481)"><g><path d="M 55.15625 -49.984375 L 22.140625 -49.984375 L 22.140625 -37.578125 L 51.9375 -37.578125 L 51.9375 -25.078125 L 22.140625 -25.078125 L 22.140625 -12.5 L 56.140625 -12.5 L 56.140625 0 L 6.25 0 L 6.25 -62.46875 L 55.15625 -62.46875 Z M 55.15625 -49.984375 "/></g></g></g><g fill="#000000" fill-opacity="1"><g transform="translate(186.833824, 212.223481)"><g><path d="M 30.25 -63.1875 C 39.59375 -63.1875 47.804688 -60.867188 54.890625 -56.234375 L 48.90625 -43.828125 C 45.632812 -45.722656 42.125 -47.28125 38.375 -48.5 C 34.625 -49.726562 31.472656 -50.34375 28.921875 -50.34375 C 24.335938 -50.34375 22.046875 -48.820312 22.046875 -45.78125 C 22.046875 -43.820312 23.175781 -42.242188 25.4375 -41.046875 C 27.695312 -39.859375 30.445312 -38.832031 33.6875 -37.96875 C 36.9375 -37.113281 40.179688 -36.070312 43.421875 -34.84375 C 46.660156 -33.625 49.410156 -31.644531 51.671875 -28.90625 C 53.929688 -26.175781 55.0625 -22.726562 55.0625 -18.5625 C 55.0625 -12.550781 52.710938 -7.863281 48.015625 -4.5 C 43.316406 -1.144531 37.335938 0.53125 30.078125 0.53125 C 24.898438 0.53125 19.78125 -0.359375 14.71875 -2.140625 C 9.664062 -3.921875 5.265625 -6.359375 1.515625 -9.453125 L 7.671875 -21.6875 C 10.828125 -18.945312 14.546875 -16.695312 18.828125 -14.9375 C 23.109375 -13.1875 26.914062 -12.3125 30.25 -12.3125 C 32.8125 -12.3125 34.804688 -12.769531 36.234375 -13.6875 C 37.660156 -14.613281 38.375 -15.972656 38.375 -17.765625 C 38.375 -19.484375 37.554688 -20.921875 35.921875 -22.078125 C 34.285156 -23.242188 32.25 -24.109375 29.8125 -24.671875 C 27.375 -25.242188 24.722656 -26.003906 21.859375 -26.953125 C 19.003906 -27.898438 16.359375 -28.9375 13.921875 -30.0625 C 11.484375 -31.195312 9.445312 -33 7.8125 -35.46875 C 6.175781 -37.945312 5.359375 -40.910156 5.359375 -44.359375 C 5.359375 -50.066406 7.632812 -54.628906 12.1875 -58.046875 C 16.738281 -61.472656 22.757812 -63.1875 30.25 -63.1875 Z M 30.25 -63.1875 "/></g></g></g><g clip-path="url(#3ca52a8862)"><path fill="#000000" d="M 207.917969 19.195312 C 207.917969 20.125 207.828125 21.042969 207.648438 21.949219 C 207.46875 22.859375 207.199219 23.742188 206.84375 24.597656 C 206.488281 25.457031 206.054688 26.269531 205.539062 27.039062 C 205.023438 27.8125 204.4375 28.523438 203.785156 29.179688 C 203.128906 29.835938 202.414062 30.421875 201.644531 30.9375 C 200.871094 31.449219 200.058594 31.886719 199.203125 32.242188 C 198.347656 32.59375 197.464844 32.863281 196.554688 33.042969 C 195.644531 33.226562 194.726562 33.316406 193.800781 33.316406 C 108.78125 33.316406 39.621094 102.480469 39.621094 187.496094 C 39.621094 272.507812 108.78125 341.660156 193.800781 341.660156 C 194.726562 341.660156 195.644531 341.75 196.554688 341.929688 C 197.464844 342.113281 198.347656 342.378906 199.203125 342.734375 C 200.0625 343.089844 200.875 343.523438 201.644531 344.039062 C 202.417969 344.554688 203.132812 345.140625 203.785156 345.796875 C 204.441406 346.453125 205.027344 347.164062 205.542969 347.9375 C 206.058594 348.707031 206.492188 349.523438 206.847656 350.378906 C 207.203125 351.234375 207.472656 352.117188 207.652344 353.027344 C 207.832031 353.9375 207.921875 354.855469 207.921875 355.785156 C 207.921875 356.710938 207.832031 357.628906 207.652344 358.539062 C 207.472656 359.449219 207.203125 360.332031 206.847656 361.1875 C 206.492188 362.046875 206.058594 362.859375 205.542969 363.628906 C 205.027344 364.402344 204.441406 365.113281 203.785156 365.769531 C 203.132812 366.425781 202.417969 367.011719 201.644531 367.527344 C 200.875 368.042969 200.0625 368.476562 199.203125 368.832031 C 198.347656 369.1875 197.464844 369.453125 196.554688 369.636719 C 195.644531 369.816406 194.726562 369.90625 193.800781 369.90625 C 93.210938 369.90625 11.375 288.074219 11.375 187.496094 C 11.375 86.914062 93.210938 5.078125 193.800781 5.078125 C 194.726562 5.078125 195.644531 5.167969 196.554688 5.347656 C 197.464844 5.53125 198.347656 5.796875 199.203125 6.152344 C 200.058594 6.507812 200.871094 6.941406 201.644531 7.457031 C 202.414062 7.972656 203.128906 8.558594 203.785156 9.210938 C 204.4375 9.867188 205.023438 10.582031 205.539062 11.351562 C 206.054688 12.125 206.488281 12.9375 206.84375 13.792969 C 207.199219 14.648438 207.46875 15.53125 207.648438 16.441406 C 207.828125 17.351562 207.917969 18.269531 207.917969 19.195312 Z M 207.917969 19.195312 " fill-opacity="1" fill-rule="nonzero"/></g></svg>